<?xml version="1.0" standalone="no"?>
<!DOCTYPE svg PUBLIC "-//W3C//DTD SVG 20010904//EN"
 "http://www.w3.org/TR/2001/REC-SVG-20010904/DTD/svg10.dtd">
<svg version="1.0" xmlns="http://www.w3.org/2000/svg"
 width="300.000000pt" height="225.000000pt" viewBox="0 0 300.000000 225.000000"
 preserveAspectRatio="xMidYMid meet">
<metadata>
Created by potrace 1.10, written by Peter Selinger 2001-2011
</metadata>
<g transform="translate(0.000000,225.000000) scale(0.100000,-0.100000)"
fill="#000000" stroke="none">
<path d="M1441 1939 c-23 -4 -62 -19 -85 -33 -100 -59 -137 -132 -145 -291
l-6 -109 -185 -61 c-206 -67 -245 -87 -290 -148 -82 -111 -75 -256 17 -358 48
-53 76 -67 285 -135 l176 -57 4 -111 c7 -166 46 -238 160 -295 113 -57 234
-37 324 53 67 68 84 119 84 251 l0 101 193 62 c220 70 264 96 311 182 57 105
44 235 -33 322 -52 57 -77 69 -287 137 l-179 57 -6 120 c-5 122 -18 164 -66
219 -66 76 -175 113 -272 94z m139 -141 c69 -47 74 -64 80 -230 l5 -150 229
-75 c250 -82 274 -95 296 -170 18 -60 5 -110 -38 -153 -31 -31 -63 -45 -204
-93 l-168 -55 0 53 0 53 140 47 c77 26 147 53 155 62 18 18 19 53 2 76 -11 15
-403 154 -488 172 l-29 7 0 167 c0 186 -7 211 -60 211 -59 0 -61 -7 -58 -278
l3 -245 94 -32 c51 -17 99 -39 107 -50 11 -15 14 -73 14 -284 0 -238 -2 -270
-19 -307 -62 -137 -263 -116 -300 31 -6 24 -11 97 -11 163 l0 118 -225 73
c-234 75 -271 94 -295 151 -17 41 -8 130 16 162 29 40 46 48 222 104 l162 52
0 -52 0 -52 -144 -47 c-131 -43 -145 -50 -156 -77 -24 -58 -9 -67 271 -160
l254 -85 3 -169 c2 -140 5 -173 19 -188 22 -24 58 -23 83 4 19 21 20 34 20
252 0 127 -4 236 -8 242 -4 6 -45 23 -92 39 -132 43 -124 25 -128 298 -4 267
1 324 31 368 47 68 152 91 217 47z"/>
</g>
</svg>
